<?xml version="1.0" encoding="UTF-8" standalone="no"?>
<svg width="217px" height="110px" viewBox="0 0 217 110" version="1.1" xmlns="http://www.w3.org/2000/svg" xmlns:xlink="http://www.w3.org/1999/xlink">
    <!-- Generator: Sketch 40.3 (33839) - http://www.bohemiancoding.com/sketch -->
    <title>Final</title>
    <desc>Created with Sketch.</desc>
    <defs></defs>
    <g id="Page-1" stroke="none" stroke-width="1" fill="none" fill-rule="evenodd">
        <g id="Final">
            <g id="logo-2-copy" transform="translate(2.000000, 3.000000)">
                <g id="Group">
                    <path d="M24.942,50.244 C26.414,48.68 30.14,47.622 34.188,28.946 C34.188,28.946 35.476,28.716 35.384,30.004 C35.292,31.476 33.498,43.068 27.84,50.474 C22.78,56.638 19.238,49.6 18.87,47.484 C18.088,42.102 18.042,36.996 18.41,31.614 C18.778,26.738 20.066,13.352 18.778,14.548 C9.854,23.426 8.704,35.34 8.336,37.456 C7.968,56.27 3.506,47.3 3.23,42.7 C2.816,36.076 2.862,22.736 3.322,14.272 C3.552,9.994 2.954,7.51 3.368,7.142 C6.542,6.36 9.348,10.546 9.348,13.628 C9.118,18.412 8.842,22.46 8.704,24.76 C9.072,23.978 14.316,15.698 17.352,12.754 C22.09,9.672 25.08,17.63 24.712,20.896 C22.228,53.28 24.942,50.244 24.942,50.244 L24.942,50.244 Z M50.2899167,28.578 C50.2899167,28.578 51.0259167,28.532 51.1179167,28.67 C51.3479167,28.992 51.3939167,29.866 51.3939167,29.866 C49.5079167,44.954 44.3099167,50.75 37.9159167,49.094 C32.7179167,47.53 35.4319167,27.98 35.7079167,26.922 C36.0299167,25.634 37.5939167,24.806 38.5599167,25.404 C40.7219167,26.784 41.1819167,28.44 40.9059167,29.498 C40.1239167,34.052 39.8479167,38.514 39.6179167,43.344 C39.3419167,49.14 47.0699167,50.612 50.2899167,28.578 L50.2899167,28.578 Z M42.2399167,19.286 C42.0099167,20.16 42.0559167,21.448 41.6419167,21.908 C41.3199167,22.322 38.0079167,21.586 37.9619167,21.126 C36.3519167,18.136 38.2379167,16.986 38.2379167,16.986 C39.2959167,17.17 42.0559167,17.906 42.2399167,19.286 L42.2399167,19.286 Z M72.5098335,28.946 C72.5098335,28.946 73.0618335,28.808 73.3838335,29.084 C73.7978335,29.36 73.6138335,30.142 73.6138335,30.142 C71.3598335,38.652 65.2418335,42.332 60.8718335,43.712 C56.2718335,45.138 51.2578335,39.342 51.3038335,33.73 C51.4418335,16.94 61.1478335,20.988 63.0338335,22.046 C65.9318335,23.702 64.9658335,26.922 63.9998335,28.808 C63.4018335,29.912 62.8498335,28.992 62.4818335,28.992 C64.2298335,23.242 62.2058335,23.334 61.7458335,22.874 C56.9158335,23.196 56.0418335,41.366 61.2858335,41.044 C69.0138335,40.584 72.5098335,28.946 72.5098335,28.946 L72.5098335,28.946 Z M88.3357502,32.534 C89.4397502,33.27 94.4077502,33.316 95.9257502,28.946 C95.9257502,28.946 96.1097502,28.21 96.9377502,28.716 C97.5357502,29.084 97.1677502,29.912 97.1677502,29.912 C94.6377502,35.662 88.4277502,34.282 87.8297502,34.19 C85.8057502,41.642 82.3557502,42.7 79.0897502,43.114 C74.9497502,43.39 73.5697502,37.87 73.3397502,35.294 C72.8337502,29.36 74.9957502,23.886 78.0317502,24.438 C77.7557502,21.172 79.9177502,20.39 80.6537502,20.022 C82.6777502,19.01 86.6797502,19.838 88.0597502,23.794 C88.8877502,26.416 89.6697502,28.67 88.3357502,32.534 L88.3357502,32.534 Z M78.4917502,25.22 C78.4917502,25.588 79.6877502,28.026 79.5037502,28.578 C79.1357502,30.556 78.6757502,39.572 81.6197502,40.354 C83.3217502,40.078 85.0237502,37.64 86.4957502,33.776 C84.6557502,33.454 80.6077502,29.866 78.4917502,25.22 L78.4917502,25.22 Z M87.0017502,31.706 C88.1057502,26.094 86.1737502,23.702 85.3457502,22.46 C84.1957502,20.942 81.2517502,19.792 80.9757502,23.38 C80.9757502,26.186 84.2417502,30.418 87.0017502,31.706 L87.0017502,31.706 Z M105.495667,50.428 C107.565667,50.382 112.395667,45.276 115.155667,28.854 C115.155667,28.854 116.029667,28.9 116.121667,29.084 C116.351667,29.406 116.397667,30.142 116.397667,30.142 C112.533667,54.844 103.609667,53.418 102.321667,52.176 C100.803667,50.658 99.515667,49.462 98.779667,46.794 C95.513667,32.718 98.043667,15.054 99.239667,10.776 C102.229667,-1.414 109.267667,0.196 110.923667,2.128 C114.833667,6.774 109.497667,21.954 102.781667,28.394 C102.689667,30.786 102.643667,49.968 105.495667,50.428 L105.495667,50.428 Z M102.689667,26.048 C102.689667,26.048 109.129667,20.206 110.325667,7.372 C110.831667,1.806 108.209667,1.392 107.473667,3.048 C105.265667,5.67 103.057667,21.586 102.689667,26.048 L102.689667,26.048 Z M116.951584,40.216 C114.651584,34.88 115.111584,22.506 123.621584,22.506 C125.323584,22.598 128.359584,22.414 128.727584,25.864 C128.865584,31.614 123.621584,33.73 121.735584,33.408 C121.919584,40.722 124.403584,40.216 125.507584,40.906 C126.611584,41.366 131.671584,40.676 135.443584,28.946 C135.443584,28.946 136.179584,28.808 136.317584,29.038 C136.547584,29.36 136.455584,30.05 136.455584,30.05 C131.809584,47.622 118.791584,43.712 116.951584,40.216 L116.951584,40.216 Z M121.597584,31.706 C123.851584,31.522 126.105584,31.016 126.657584,26.646 C126.519584,23.978 124.771584,23.932 123.989584,24.484 C122.609584,26.186 122.057584,27.934 121.597584,31.706 L121.597584,31.706 Z M0.562,62.432 C9.21,55.578 26.828,55.256 31.336,72.92 C32.072,75.312 31.704,80.188 31.704,80.924 C33.406,81.292 37.178,80.142 39.064,78.762 C39.938,78.118 40.306,79.268 39.662,80.142 C38.466,81.798 32.992,82.81 31.29,82.764 C25.448,102.774 9.072,99.784 7.048,98.68 C-0.772,95.782 5.208,90.17 5.944,89.434 C8.98,86.858 7.462,88.1 7.048,86.674 C6.358,84.052 6.266,81.338 6.634,78.21 C7.002,73.978 7.646,66.526 7.646,65.79 C9.348,66.158 13.166,69.01 12.798,70.712 C12.43,74.208 11.188,83.638 10.82,86.352 C11.556,85.984 20.71,82.35 25.816,81.614 C27.058,68.55 18.824,60.27 13.994,59.902 C9.762,59.166 5.484,61.098 1.988,63.122 C0.608,63.996 0.562,62.432 0.562,62.432 L0.562,62.432 Z M25.54,83.362 C15.098,84.42 4.702,92.47 5.254,94.356 C8.75,102.084 24.114,97.07 25.54,83.362 L25.54,83.362 Z M43.21,71.816 C43.946,70.574 45.464,68.872 45.602,66.986 C44.82,67.63 43.348,67.492 42.658,67.216 C41.692,66.94 42.198,64.962 42.658,63.26 C43.164,62.432 45.74,61.236 48.224,62.754 C50.478,65.744 47.304,71.356 45.602,72.644 C44.636,73.38 42.98,72.552 43.21,71.816 L43.21,71.816 Z M67.366,88.652 C63.686,96.794 60.052,96.794 58.58,97.162 C51.864,97.714 51.588,88.606 52.002,85.156 C52.416,80.188 55.912,59.212 65.112,57.97 C71.23,57.602 72.426,63.352 72.518,65.698 C72.564,67.17 71.828,67.492 71.23,67.262 C70.08,58.614 67.044,59.81 66.63,60.178 C59.776,67.032 55.636,89.112 56.142,92.562 C57.384,96.564 61.478,93.988 62.858,91.642 C64.744,88.422 69.942,73.748 70.448,72.368 C70.862,72 71.092,71.816 71.598,71.816 C73.07,72.184 75.324,75.634 74.818,77.658 C72.656,90.446 71,96.932 72.932,97.53 C74.864,98.128 81.258,94.724 83.466,78.992 C84.34,77.612 84.708,79.866 84.708,79.866 C83.328,97.99 74.266,100.382 71.736,99.462 C65.02,97.714 67.366,89.02 67.366,88.652 L67.366,88.652 Z M113.74,80.096 C109.048,104.936 102.24,102.544 101.044,100.612 C97.594,97.116 97.272,87.318 97.64,84.098 C97.64,81.522 100.538,71.448 98.008,73.196 C94.19,76.554 91.062,86.122 90.602,86.95 C91.43,89.986 90.556,90.538 89.866,90.676 C86.324,91.228 86.048,89.066 85.68,87.824 C84.668,83.408 85.266,77.934 86.278,73.656 C86.278,72.828 87.704,72.414 88.164,72.782 C89.912,73.794 91.522,74.622 91.154,76.646 C90.786,78.394 90.464,82.212 90.464,83.04 C92.672,76.6 95.386,73.61 96.858,72.138 C98.974,70.022 103.482,72.782 103.988,75.772 C104.356,79.314 103.712,82.902 103.344,85.478 C101.872,94.08 103.298,97.484 103.666,97.852 C104.586,98.864 107.576,100.612 112.544,78.946 C112.544,78.946 113.418,79.084 113.464,79.176 C113.694,79.544 113.74,80.096 113.74,80.096 L113.74,80.096 Z M133.342,100.29 C134.538,99.738 137.62,93.666 141.162,78.67 C141.162,78.67 141.898,78.532 141.99,78.716 C142.404,78.946 142.404,80.05 142.404,80.05 C136.976,103.142 133.572,104.844 128.926,102.406 C125.568,100.29 125.844,93.298 125.2,91.182 C122.118,98.45 117.196,95.828 116.506,95.276 C111.86,92.378 112.688,78.946 115.494,76.83 C118.346,74.668 121.52,75.174 124.694,76.048 C125.246,57.096 130.26,54.428 131.318,53.048 C138.264,46.332 138.724,57.51 137.206,63.398 C133.94,75.634 132.284,78.164 130.306,81.936 C130.076,96.15 131.548,101.118 133.342,100.29 L133.342,100.29 Z M129.8,79.314 C129.8,79.314 131.916,75.588 135.136,63.168 C137.298,52.312 134.124,52.634 133.618,53.6 C129.8,63.03 129.708,78.486 129.8,79.314 L129.8,79.314 Z M120.554,93.712 C122.67,93.942 124.878,89.756 124.924,88.744 C125.062,85.294 124.648,79.682 124.648,77.98 C115.172,76.232 117.242,93.344 120.554,93.712 L120.554,93.712 Z M165.134,79.13 C165.134,79.13 165.456,78.578 166.192,79.084 C166.744,79.406 166.514,80.28 166.514,80.28 C163.8,97.99 160.12,99.738 158.234,100.75 C154.968,102.452 151.84,100.98 150.874,99.278 C147.838,93.942 150.276,85.57 151.012,82.994 C147.378,84.19 144.112,82.902 142.686,81.2 C141.26,78.532 140.156,76.692 141.03,73.472 C142.088,70.482 144.664,69.608 146.274,70.942 C148.804,73.058 146.182,76.324 144.986,78.946 C145.998,81.752 150.92,80.97 152.392,79.866 C154.324,78.67 156.716,79.498 156.532,81.982 C156.486,85.708 156.026,86.49 155.566,89.848 C154.37,98.726 156.808,98.956 156.808,98.956 C161.914,99.784 165.134,79.13 165.134,79.13 L165.134,79.13 Z M143.652,77.52 C144.894,74.622 145.676,73.932 145.308,72.598 C145.308,72.598 144.618,71.08 143.284,72.644 C142.456,74.346 142.778,76.324 143.652,77.52 L143.652,77.52 Z M167.67,90.216 C165.37,84.88 165.83,72.506 174.34,72.506 C176.042,72.598 179.078,72.414 179.446,75.864 C179.584,81.614 174.34,83.73 172.454,83.408 C172.638,90.722 175.122,90.216 176.226,90.906 C177.33,91.366 182.39,90.676 186.162,78.946 C186.162,78.946 186.898,78.808 187.036,79.038 C187.266,79.36 187.174,80.05 187.174,80.05 C182.528,97.622 169.51,93.712 167.67,90.216 L167.67,90.216 Z M172.316,81.706 C174.57,81.522 176.824,81.016 177.376,76.646 C177.238,73.978 175.49,73.932 174.708,74.484 C173.328,76.186 172.776,77.934 172.316,81.706 L172.316,81.706 Z M198.772,80.74 C198.358,73.196 196.426,74.622 196.426,74.622 C191.458,79.544 191.044,91.642 192.378,91.734 C193.942,91.642 196.058,88.882 196.426,86.858 C197.162,82.994 198.404,82.488 199.232,83.316 C200.52,84.282 201.348,85.57 200.888,86.95 C199.83,95.184 201.486,94.632 202.038,94.31 C204.66,92.746 208.294,87.088 210.226,78.854 C210.226,78.854 210.824,78.118 211.238,78.716 C211.928,79.084 211.652,80.004 211.652,80.004 C207.972,94.586 202.958,95.184 201.716,96.426 C197.024,98.496 196.702,91.918 196.242,90.906 C193.39,94.31 190.446,94.126 189.618,93.666 C183.5,92.7 187.272,75.082 192.286,72.828 C198.404,70.068 200.244,78.624 199.922,80.188 L198.772,80.74 Z" id="Nicole-D’Andrea" fill="#84DCC6"></path>
                    <path d="M175.602121,15.1314951 C168.169946,26.7270224 165.648691,43.8802898 175.391578,57.745855 C176.576761,59.4180483 176.424117,59.4180483 177.608422,57.745855 C187.313586,43.958231 184.849354,26.8811334 177.512801,15.2856062 C176.500439,13.7081822 176.632905,13.496501 175.602121,15.1314951 L175.602121,15.1314951 L175.602121,15.1314951 Z M185.823116,30.6116835 C186.51089,40.3419357 184.791454,47.2264479 182.173701,53.0339542 C180.70253,56.3225421 181.180638,55.4572175 183.587849,53.4573167 C192.73946,45.8607052 198.375877,35.6876051 199.50316,22.2657735 C199.655804,20.5156389 199.275072,20.1117617 197.688102,20.9965716 C193.179846,23.5349753 189.204966,26.3036599 185.995937,30.0917801 C185.861716,30.2458912 185.804693,30.4194875 185.823116,30.6116835 L185.823116,30.6116835 L185.823116,30.6116835 Z M167.176884,30.6116835 C166.48911,40.3419357 168.208546,47.2264479 170.826299,53.0339542 C172.29747,56.3225421 171.838661,55.4572175 169.413028,53.4573167 C160.26054,45.8607052 154.624123,35.6876051 153.49684,22.2657735 C153.344196,20.5156389 153.745105,20.1117617 155.331197,20.9965716 C159.839454,23.5349753 163.795034,26.3036599 167.004063,30.0917801 C167.138284,30.2458912 167.195307,30.4194875 167.176884,30.6116835 L167.176884,30.6116835 L167.176884,30.6116835 Z M153.688083,34.765596 C153.324896,33.380368 152.961709,32.5920989 151.566861,32.5531283 C148.299932,32.4379879 145.033003,32.3033621 141.745898,32.1687364 C141.211644,32.1492511 140.829157,32.7462099 141.077423,33.226257 C148.108688,47.0528516 156.973434,53.0525538 166.563677,55.8982939 C169.926227,56.8982443 169.602517,56.840674 167.079508,54.7832031 C161.693111,50.3609248 156.439181,45.1875765 153.688083,34.765596 L153.688083,34.765596 L153.688083,34.765596 Z M199.312794,34.765596 C199.675104,33.380368 200.038291,32.5920989 201.433139,32.5531283 C204.700068,32.4379879 207.967874,32.3033621 211.254102,32.1687364 C211.788356,32.1492511 212.170843,32.7462099 211.922577,33.226257 C204.891312,47.0528516 196.026566,53.0525538 186.436323,55.8982939 C183.073773,56.8982443 183.39836,56.840674 185.920492,54.7832031 C191.306889,50.3609248 196.560819,45.1875765 199.312794,34.765596 L199.312794,34.765596 L199.312794,34.765596 Z" id="Shape" fill="#FFA69E"></path>
                </g>
            </g>
        </g>
    </g>
</svg>